<mxfile host="app.diagrams.net" modified="2024-04-19T10:55:11.912Z" agent="Mozilla/5.0 (Windows NT 10.0; Win64; x64) AppleWebKit/537.36 (KHTML, like Gecko) Chrome/124.0.0.0 Safari/537.36" etag="VmLBAZiHHABhg_IILzmf" version="24.2.5" type="device" pages="3">
  <diagram id="BAdWWXB0k4fnDNLk0uTa" name="0 уровень">
    <mxGraphModel dx="1103" dy="598" grid="1" gridSize="10" guides="1" tooltips="1" connect="1" arrows="1" fold="1" page="1" pageScale="1" pageWidth="850" pageHeight="1100" math="0" shadow="0">
      <root>
        <mxCell id="0" />
        <mxCell id="1" parent="0" />
        <mxCell id="6NS1RVh7usOJs5nfT_ab-1" value="Клиент" style="html=1;dashed=0;whiteSpace=wrap;" parent="1" vertex="1">
          <mxGeometry x="20" y="312.5" width="180" height="95" as="geometry" />
        </mxCell>
        <mxCell id="6NS1RVh7usOJs5nfT_ab-4" value="Заказ" style="endArrow=classic;html=1;rounded=0;exitX=1;exitY=0.25;exitDx=0;exitDy=0;entryX=0;entryY=0.25;entryDx=0;entryDy=0;" parent="1" source="6NS1RVh7usOJs5nfT_ab-1" edge="1">
          <mxGeometry width="50" height="50" relative="1" as="geometry">
            <mxPoint x="400" y="430" as="sourcePoint" />
            <mxPoint x="340" y="336.875" as="targetPoint" />
          </mxGeometry>
        </mxCell>
        <mxCell id="6NS1RVh7usOJs5nfT_ab-5" value="Сотрудник" style="html=1;dashed=0;whiteSpace=wrap;" parent="1" vertex="1">
          <mxGeometry x="770" y="327.5" width="150" height="80" as="geometry" />
        </mxCell>
        <mxCell id="6NS1RVh7usOJs5nfT_ab-6" value="" style="endArrow=classic;html=1;rounded=0;exitX=0;exitY=0.25;exitDx=0;exitDy=0;" parent="1" source="6NS1RVh7usOJs5nfT_ab-5" edge="1">
          <mxGeometry width="50" height="50" relative="1" as="geometry">
            <mxPoint x="390" y="400" as="sourcePoint" />
            <mxPoint x="540" y="346" as="targetPoint" />
          </mxGeometry>
        </mxCell>
        <mxCell id="6NS1RVh7usOJs5nfT_ab-9" value="Информация о фирме" style="edgeLabel;html=1;align=center;verticalAlign=middle;resizable=0;points=[];" parent="6NS1RVh7usOJs5nfT_ab-6" vertex="1" connectable="0">
          <mxGeometry x="-0.2121" relative="1" as="geometry">
            <mxPoint as="offset" />
          </mxGeometry>
        </mxCell>
        <mxCell id="6NS1RVh7usOJs5nfT_ab-7" value="01&lt;span style=&quot;white-space: pre;&quot;&gt;&#x9;&lt;/span&gt;База данных" style="html=1;dashed=0;whiteSpace=wrap;shape=mxgraph.dfd.dataStoreID;align=left;spacingLeft=3;points=[[0,0],[0.5,0],[1,0],[0,0.5],[1,0.5],[0,1],[0.5,1],[1,1]];" parent="1" vertex="1">
          <mxGeometry x="377.5" y="210" width="125" height="30" as="geometry" />
        </mxCell>
        <mxCell id="6NS1RVh7usOJs5nfT_ab-8" value="" style="endArrow=classic;html=1;rounded=0;exitX=0.5;exitY=1;exitDx=0;exitDy=0;entryX=0.5;entryY=0;entryDx=0;entryDy=0;" parent="1" source="6NS1RVh7usOJs5nfT_ab-7" edge="1">
          <mxGeometry width="50" height="50" relative="1" as="geometry">
            <mxPoint x="390" y="300" as="sourcePoint" />
            <mxPoint x="440" y="312.5" as="targetPoint" />
          </mxGeometry>
        </mxCell>
        <mxCell id="mEFLY6NwOFiQSvhY-sNP-1" value="Статус заказов" style="endArrow=classic;html=1;rounded=0;entryX=1;entryY=0.75;entryDx=0;entryDy=0;exitX=0;exitY=0.75;exitDx=0;exitDy=0;" parent="1" target="6NS1RVh7usOJs5nfT_ab-1" edge="1">
          <mxGeometry width="50" height="50" relative="1" as="geometry">
            <mxPoint x="340" y="385.625" as="sourcePoint" />
            <mxPoint x="530" y="340" as="targetPoint" />
          </mxGeometry>
        </mxCell>
        <mxCell id="mEFLY6NwOFiQSvhY-sNP-3" value="Информация о заказах" style="endArrow=none;html=1;rounded=0;entryX=1;entryY=0.75;entryDx=0;entryDy=0;exitX=0;exitY=0.75;exitDx=0;exitDy=0;startArrow=classic;startFill=1;endFill=0;" parent="1" source="6NS1RVh7usOJs5nfT_ab-5" edge="1">
          <mxGeometry width="50" height="50" relative="1" as="geometry">
            <mxPoint x="480" y="390" as="sourcePoint" />
            <mxPoint x="540" y="385.625" as="targetPoint" />
          </mxGeometry>
        </mxCell>
        <mxCell id="nSad0Hj5-ABMY3o7EEWT-1" value="АИС IT Фирмы" style="rounded=1;whiteSpace=wrap;html=1;" vertex="1" parent="1">
          <mxGeometry x="340" y="317.5" width="200" height="92.5" as="geometry" />
        </mxCell>
        <mxCell id="Vzc4ecrUrs0iiLSJFaet-3" value="Информация о фирме" style="endArrow=classic;html=1;rounded=0;entryX=0;entryY=0.5;entryDx=0;entryDy=0;" edge="1" parent="1" target="6NS1RVh7usOJs5nfT_ab-5">
          <mxGeometry width="50" height="50" relative="1" as="geometry">
            <mxPoint x="539" y="367" as="sourcePoint" />
            <mxPoint x="480" y="370" as="targetPoint" />
          </mxGeometry>
        </mxCell>
      </root>
    </mxGraphModel>
  </diagram>
  <diagram id="NFNB6OhN5-8l5yV05A8a" name="Page-3">
    <mxGraphModel dx="1793" dy="973" grid="1" gridSize="10" guides="1" tooltips="1" connect="1" arrows="1" fold="1" page="1" pageScale="1" pageWidth="850" pageHeight="1100" math="0" shadow="0">
      <root>
        <mxCell id="0" />
        <mxCell id="1" parent="0" />
        <mxCell id="9WP2JfRjgEv5mgXPUh_K-3" value="Заказ" style="endArrow=classic;html=1;rounded=0;exitX=1;exitY=0.25;exitDx=0;exitDy=0;entryX=0;entryY=0.25;entryDx=0;entryDy=0;" edge="1" parent="1">
          <mxGeometry width="50" height="50" relative="1" as="geometry">
            <mxPoint x="200" y="358.37" as="sourcePoint" />
            <mxPoint x="340" y="358.995" as="targetPoint" />
          </mxGeometry>
        </mxCell>
        <mxCell id="ipJRxGinO0X1vrbkXwjg-1" value="Данные о заказе" style="endArrow=classic;html=1;rounded=0;exitX=0.5;exitY=1;exitDx=0;exitDy=0;entryX=0.5;entryY=0;entryDx=0;entryDy=0;" edge="1" parent="1" source="Vm5128Ah_R8YeIk5pQ1Z-3">
          <mxGeometry width="50" height="50" relative="1" as="geometry">
            <mxPoint x="440" y="410" as="sourcePoint" />
            <mxPoint x="440" y="510" as="targetPoint" />
          </mxGeometry>
        </mxCell>
        <mxCell id="s5lED88wb_mgoiN4R5j7-2" value="Данные о программах" style="endArrow=classic;html=1;rounded=0;exitX=0.5;exitY=1;exitDx=0;exitDy=0;entryX=0.5;entryY=0;entryDx=0;entryDy=0;" edge="1" parent="1" source="Vm5128Ah_R8YeIk5pQ1Z-5">
          <mxGeometry width="50" height="50" relative="1" as="geometry">
            <mxPoint x="440" y="607.5" as="sourcePoint" />
            <mxPoint x="440" y="710" as="targetPoint" />
          </mxGeometry>
        </mxCell>
        <mxCell id="4zVUVJbae8-DAcPTDNLi-2" value="Данные о клиенте" style="endArrow=classic;html=1;rounded=0;exitX=1;exitY=0.5;exitDx=0;exitDy=0;entryX=0;entryY=0.51;entryDx=0;entryDy=0;entryPerimeter=0;" edge="1" parent="1" target="Vm5128Ah_R8YeIk5pQ1Z-1">
          <mxGeometry width="50" height="50" relative="1" as="geometry">
            <mxPoint x="540" y="361.25" as="sourcePoint" />
            <mxPoint x="650.0000000000002" y="361.25" as="targetPoint" />
          </mxGeometry>
        </mxCell>
        <mxCell id="8LeKlmhp5OQ-w_2iG7kv-1" value="Данные о программе" style="endArrow=classic;html=1;rounded=0;exitX=0.5;exitY=1;exitDx=0;exitDy=0;entryX=0.5;entryY=0;entryDx=0;entryDy=0;" edge="1" parent="1" source="Vm5128Ah_R8YeIk5pQ1Z-2">
          <mxGeometry width="50" height="50" relative="1" as="geometry">
            <mxPoint x="440" y="807.5" as="sourcePoint" />
            <mxPoint x="440" y="870" as="targetPoint" />
          </mxGeometry>
        </mxCell>
        <mxCell id="BXLAVXYleilbvezJqHf_-2" value="Данные о заказе" style="endArrow=classic;html=1;rounded=0;exitX=0.5;exitY=1;exitDx=0;exitDy=0;entryX=0.5;entryY=1;entryDx=0;entryDy=0;" edge="1" parent="1" source="Vm5128Ah_R8YeIk5pQ1Z-6" target="g14VrPMbeZ3gyLxGwFL7-2">
          <mxGeometry width="50" height="50" relative="1" as="geometry">
            <mxPoint x="440" y="967.5" as="sourcePoint" />
            <mxPoint x="110" y="740" as="targetPoint" />
            <Array as="points">
              <mxPoint x="440" y="1040" />
              <mxPoint x="110" y="1040" />
            </Array>
          </mxGeometry>
        </mxCell>
        <mxCell id="z-t_3G08nGlowyexxi_D-1" value="" style="endArrow=classic;html=1;rounded=0;exitX=0;exitY=0.5;exitDx=0;exitDy=0;entryX=1;entryY=0.5;entryDx=0;entryDy=0;" edge="1" parent="1">
          <mxGeometry width="50" height="50" relative="1" as="geometry">
            <mxPoint x="1160" y="538.75" as="sourcePoint" />
            <mxPoint x="850" y="538.75" as="targetPoint" />
          </mxGeometry>
        </mxCell>
        <mxCell id="z-t_3G08nGlowyexxi_D-2" value="Информация о фирме" style="edgeLabel;html=1;align=center;verticalAlign=middle;resizable=0;points=[];" vertex="1" connectable="0" parent="z-t_3G08nGlowyexxi_D-1">
          <mxGeometry x="-0.2121" relative="1" as="geometry">
            <mxPoint as="offset" />
          </mxGeometry>
        </mxCell>
        <mxCell id="Vm5128Ah_R8YeIk5pQ1Z-1" value="Формирование профилей клиента в АИС" style="rounded=1;whiteSpace=wrap;html=1;" vertex="1" parent="1">
          <mxGeometry x="690" y="292.5" width="280" height="132.5" as="geometry" />
        </mxCell>
        <mxCell id="Vm5128Ah_R8YeIk5pQ1Z-2" value="&lt;span style=&quot;text-wrap: nowrap;&quot;&gt;Распределение программ по&amp;nbsp;&lt;/span&gt;&lt;br style=&quot;padding: 0px; margin: 0px; text-wrap: nowrap;&quot;&gt;&lt;span style=&quot;text-wrap: nowrap;&quot;&gt;группам разработки&lt;/span&gt;" style="rounded=1;whiteSpace=wrap;html=1;" vertex="1" parent="1">
          <mxGeometry x="340" y="710" width="200" height="92.5" as="geometry" />
        </mxCell>
        <mxCell id="Vm5128Ah_R8YeIk5pQ1Z-3" value="&#xa;&lt;span style=&quot;color: rgb(0, 0, 0); font-family: Helvetica; font-size: 12px; font-style: normal; font-variant-ligatures: normal; font-variant-caps: normal; font-weight: 400; letter-spacing: normal; orphans: 2; text-align: center; text-indent: 0px; text-transform: none; widows: 2; word-spacing: 0px; -webkit-text-stroke-width: 0px; white-space: nowrap; background-color: rgb(251, 251, 251); text-decoration-thickness: initial; text-decoration-style: initial; text-decoration-color: initial; display: inline !important; float: none;&quot;&gt;Оформление заказа&lt;/span&gt;&#xa;&#xa;" style="rounded=1;whiteSpace=wrap;html=1;" vertex="1" parent="1">
          <mxGeometry x="340" y="320" width="200" height="77.5" as="geometry" />
        </mxCell>
        <mxCell id="Vm5128Ah_R8YeIk5pQ1Z-4" value="&#xa;&lt;span style=&quot;color: rgb(0, 0, 0); font-family: Helvetica; font-size: 12px; font-style: normal; font-variant-ligatures: normal; font-variant-caps: normal; font-weight: 400; letter-spacing: normal; orphans: 2; text-align: center; text-indent: 0px; text-transform: none; widows: 2; word-spacing: 0px; -webkit-text-stroke-width: 0px; white-space: nowrap; background-color: rgb(251, 251, 251); text-decoration-thickness: initial; text-decoration-style: initial; text-decoration-color: initial; display: inline !important; float: none;&quot;&gt;Актуализация данных о фирме&lt;/span&gt;&lt;br style=&quot;forced-color-adjust: none; padding: 0px; margin: 0px; color: rgb(0, 0, 0); font-family: Helvetica; font-size: 12px; font-style: normal; font-variant-ligatures: normal; font-variant-caps: normal; font-weight: 400; letter-spacing: normal; orphans: 2; text-align: center; text-indent: 0px; text-transform: none; widows: 2; word-spacing: 0px; -webkit-text-stroke-width: 0px; white-space: nowrap; background-color: rgb(251, 251, 251); text-decoration-thickness: initial; text-decoration-style: initial; text-decoration-color: initial;&quot;&gt;&lt;span style=&quot;color: rgb(0, 0, 0); font-family: Helvetica; font-size: 12px; font-style: normal; font-variant-ligatures: normal; font-variant-caps: normal; font-weight: 400; letter-spacing: normal; orphans: 2; text-align: center; text-indent: 0px; text-transform: none; widows: 2; word-spacing: 0px; -webkit-text-stroke-width: 0px; white-space: nowrap; background-color: rgb(251, 251, 251); text-decoration-thickness: initial; text-decoration-style: initial; text-decoration-color: initial; display: inline !important; float: none;&quot;&gt;(сотрудники,&lt;/span&gt;&lt;br style=&quot;forced-color-adjust: none; padding: 0px; margin: 0px; color: rgb(0, 0, 0); font-family: Helvetica; font-size: 12px; font-style: normal; font-variant-ligatures: normal; font-variant-caps: normal; font-weight: 400; letter-spacing: normal; orphans: 2; text-align: center; text-indent: 0px; text-transform: none; widows: 2; word-spacing: 0px; -webkit-text-stroke-width: 0px; white-space: nowrap; background-color: rgb(251, 251, 251); text-decoration-thickness: initial; text-decoration-style: initial; text-decoration-color: initial;&quot;&gt;&lt;span style=&quot;color: rgb(0, 0, 0); font-family: Helvetica; font-size: 12px; font-style: normal; font-variant-ligatures: normal; font-variant-caps: normal; font-weight: 400; letter-spacing: normal; orphans: 2; text-align: center; text-indent: 0px; text-transform: none; widows: 2; word-spacing: 0px; -webkit-text-stroke-width: 0px; white-space: nowrap; background-color: rgb(251, 251, 251); text-decoration-thickness: initial; text-decoration-style: initial; text-decoration-color: initial; display: inline !important; float: none;&quot;&gt;тех оборудование,&lt;/span&gt;&lt;br style=&quot;forced-color-adjust: none; padding: 0px; margin: 0px; color: rgb(0, 0, 0); font-family: Helvetica; font-size: 12px; font-style: normal; font-variant-ligatures: normal; font-variant-caps: normal; font-weight: 400; letter-spacing: normal; orphans: 2; text-align: center; text-indent: 0px; text-transform: none; widows: 2; word-spacing: 0px; -webkit-text-stroke-width: 0px; white-space: nowrap; background-color: rgb(251, 251, 251); text-decoration-thickness: initial; text-decoration-style: initial; text-decoration-color: initial;&quot;&gt;&lt;span style=&quot;color: rgb(0, 0, 0); font-family: Helvetica; font-size: 12px; font-style: normal; font-variant-ligatures: normal; font-variant-caps: normal; font-weight: 400; letter-spacing: normal; orphans: 2; text-align: center; text-indent: 0px; text-transform: none; widows: 2; word-spacing: 0px; -webkit-text-stroke-width: 0px; white-space: nowrap; background-color: rgb(251, 251, 251); text-decoration-thickness: initial; text-decoration-style: initial; text-decoration-color: initial; display: inline !important; float: none;&quot;&gt;группы разработки)&lt;/span&gt;&#xa;&#xa;" style="rounded=1;whiteSpace=wrap;html=1;" vertex="1" parent="1">
          <mxGeometry x="650" y="490" width="200" height="92.5" as="geometry" />
        </mxCell>
        <mxCell id="Vm5128Ah_R8YeIk5pQ1Z-5" value="&lt;br&gt;&lt;span style=&quot;text-wrap: nowrap;&quot;&gt;Формирование программ&lt;/span&gt;" style="rounded=1;whiteSpace=wrap;html=1;" vertex="1" parent="1">
          <mxGeometry x="340" y="511" width="200" height="77.5" as="geometry" />
        </mxCell>
        <mxCell id="Vm5128Ah_R8YeIk5pQ1Z-6" value="Разработка программы" style="rounded=1;whiteSpace=wrap;html=1;" vertex="1" parent="1">
          <mxGeometry x="340" y="870" width="200" height="92.5" as="geometry" />
        </mxCell>
        <mxCell id="a-hHkzVhYTWqOTj_E1xq-2" value="Информация о фирме" style="endArrow=classic;html=1;rounded=0;exitX=0.5;exitY=1;exitDx=0;exitDy=0;entryX=0.5;entryY=0;entryDx=0;entryDy=0;" edge="1" parent="1" source="Vm5128Ah_R8YeIk5pQ1Z-4" target="g14VrPMbeZ3gyLxGwFL7-4">
          <mxGeometry width="50" height="50" relative="1" as="geometry">
            <mxPoint x="640" y="640" as="sourcePoint" />
            <mxPoint x="750" y="750" as="targetPoint" />
          </mxGeometry>
        </mxCell>
        <mxCell id="g14VrPMbeZ3gyLxGwFL7-1" value="Данные о клиенте" style="endArrow=classic;html=1;rounded=0;exitX=1;exitY=0.5;exitDx=0;exitDy=0;" edge="1" parent="1" source="Vm5128Ah_R8YeIk5pQ1Z-1">
          <mxGeometry width="50" height="50" relative="1" as="geometry">
            <mxPoint x="740" y="490" as="sourcePoint" />
            <mxPoint x="1170" y="360" as="targetPoint" />
          </mxGeometry>
        </mxCell>
        <mxCell id="g14VrPMbeZ3gyLxGwFL7-2" value="Формирование отчетов о заказах" style="rounded=1;whiteSpace=wrap;html=1;" vertex="1" parent="1">
          <mxGeometry x="10" y="650" width="200" height="92.5" as="geometry" />
        </mxCell>
        <mxCell id="g14VrPMbeZ3gyLxGwFL7-3" value="Отчеты о заказах" style="endArrow=classic;html=1;rounded=0;exitX=0.5;exitY=0;exitDx=0;exitDy=0;" edge="1" parent="1" source="g14VrPMbeZ3gyLxGwFL7-2">
          <mxGeometry width="50" height="50" relative="1" as="geometry">
            <mxPoint x="410" y="660" as="sourcePoint" />
            <mxPoint x="110" y="560" as="targetPoint" />
          </mxGeometry>
        </mxCell>
        <mxCell id="g14VrPMbeZ3gyLxGwFL7-4" value="&lt;span style=&quot;text-wrap: nowrap;&quot;&gt;Формирование отчетов о фирме&lt;/span&gt;" style="rounded=1;whiteSpace=wrap;html=1;" vertex="1" parent="1">
          <mxGeometry x="650" y="750" width="200" height="92.5" as="geometry" />
        </mxCell>
        <mxCell id="g14VrPMbeZ3gyLxGwFL7-5" value="Отчеты о фирмах" style="endArrow=classic;html=1;rounded=0;exitX=0.5;exitY=1;exitDx=0;exitDy=0;" edge="1" parent="1" source="g14VrPMbeZ3gyLxGwFL7-4">
          <mxGeometry width="50" height="50" relative="1" as="geometry">
            <mxPoint x="730" y="740" as="sourcePoint" />
            <mxPoint x="750" y="930" as="targetPoint" />
          </mxGeometry>
        </mxCell>
        <mxCell id="g14VrPMbeZ3gyLxGwFL7-6" value="&lt;span style=&quot;text-wrap: nowrap;&quot;&gt;Формирование отчетов о клиенте&lt;/span&gt;" style="rounded=1;whiteSpace=wrap;html=1;" vertex="1" parent="1">
          <mxGeometry x="1170" y="312.5" width="200" height="92.5" as="geometry" />
        </mxCell>
        <mxCell id="g14VrPMbeZ3gyLxGwFL7-7" value="Отчеты о клиентах" style="endArrow=classic;html=1;rounded=0;exitX=1;exitY=0.5;exitDx=0;exitDy=0;" edge="1" parent="1" source="g14VrPMbeZ3gyLxGwFL7-6">
          <mxGeometry width="50" height="50" relative="1" as="geometry">
            <mxPoint x="780" y="720" as="sourcePoint" />
            <mxPoint x="1530" y="359" as="targetPoint" />
          </mxGeometry>
        </mxCell>
      </root>
    </mxGraphModel>
  </diagram>
  <diagram id="XAV8LFHq9-Je78FAb7bx" name="Page-1">
    <mxGraphModel dx="1103" dy="598" grid="1" gridSize="10" guides="1" tooltips="1" connect="1" arrows="1" fold="1" page="1" pageScale="1" pageWidth="850" pageHeight="1100" math="0" shadow="0">
      <root>
        <mxCell id="0" />
        <mxCell id="1" parent="0" />
        <mxCell id="U2fu4v0QsKSTHsmB8Sll-10" style="edgeStyle=orthogonalEdgeStyle;rounded=0;orthogonalLoop=1;jettySize=auto;html=1;exitX=0;exitY=0.5;exitDx=0;exitDy=0;entryX=1;entryY=0.5;entryDx=0;entryDy=0;" parent="1" source="U2fu4v0QsKSTHsmB8Sll-12" target="U2fu4v0QsKSTHsmB8Sll-32" edge="1">
          <mxGeometry relative="1" as="geometry" />
        </mxCell>
        <mxCell id="U2fu4v0QsKSTHsmB8Sll-11" value="Информация о &lt;br&gt;карпе в пруду" style="edgeLabel;html=1;align=center;verticalAlign=middle;resizable=0;points=[];" parent="U2fu4v0QsKSTHsmB8Sll-10" vertex="1" connectable="0">
          <mxGeometry x="0.1625" y="-4" relative="1" as="geometry">
            <mxPoint x="12" y="-16" as="offset" />
          </mxGeometry>
        </mxCell>
        <mxCell id="U2fu4v0QsKSTHsmB8Sll-12" value="&amp;nbsp; &amp;nbsp;3&amp;nbsp; &amp;nbsp; &amp;nbsp; Карп в пруду" style="rounded=0;whiteSpace=wrap;html=1;align=left;" parent="1" vertex="1">
          <mxGeometry x="988" y="415" width="120" height="40" as="geometry" />
        </mxCell>
        <mxCell id="U2fu4v0QsKSTHsmB8Sll-13" value="" style="endArrow=none;html=1;rounded=0;entryX=0.25;entryY=0;entryDx=0;entryDy=0;exitX=0.25;exitY=1;exitDx=0;exitDy=0;" parent="1" source="U2fu4v0QsKSTHsmB8Sll-12" target="U2fu4v0QsKSTHsmB8Sll-12" edge="1">
          <mxGeometry width="50" height="50" relative="1" as="geometry">
            <mxPoint x="493" y="533" as="sourcePoint" />
            <mxPoint x="543" y="483" as="targetPoint" />
          </mxGeometry>
        </mxCell>
        <mxCell id="U2fu4v0QsKSTHsmB8Sll-14" style="edgeStyle=orthogonalEdgeStyle;rounded=0;orthogonalLoop=1;jettySize=auto;html=1;exitX=0.5;exitY=0;exitDx=0;exitDy=0;entryX=0.5;entryY=1;entryDx=0;entryDy=0;" parent="1" source="U2fu4v0QsKSTHsmB8Sll-16" target="U2fu4v0QsKSTHsmB8Sll-44" edge="1">
          <mxGeometry relative="1" as="geometry">
            <mxPoint x="1113" y="733" as="targetPoint" />
          </mxGeometry>
        </mxCell>
        <mxCell id="U2fu4v0QsKSTHsmB8Sll-15" value="Информация &lt;br&gt;о номенклатуре" style="edgeLabel;html=1;align=center;verticalAlign=middle;resizable=0;points=[];" parent="U2fu4v0QsKSTHsmB8Sll-14" vertex="1" connectable="0">
          <mxGeometry x="-0.06" y="4" relative="1" as="geometry">
            <mxPoint x="1" y="1" as="offset" />
          </mxGeometry>
        </mxCell>
        <mxCell id="U2fu4v0QsKSTHsmB8Sll-16" value="&amp;nbsp; &amp;nbsp;7&amp;nbsp; &amp;nbsp; &amp;nbsp;Номенклатура" style="rounded=0;whiteSpace=wrap;html=1;align=left;" parent="1" vertex="1">
          <mxGeometry x="988" y="643" width="120" height="40" as="geometry" />
        </mxCell>
        <mxCell id="U2fu4v0QsKSTHsmB8Sll-17" value="" style="endArrow=none;html=1;rounded=0;entryX=0.25;entryY=0;entryDx=0;entryDy=0;exitX=0.25;exitY=1;exitDx=0;exitDy=0;" parent="1" source="U2fu4v0QsKSTHsmB8Sll-16" target="U2fu4v0QsKSTHsmB8Sll-16" edge="1">
          <mxGeometry width="50" height="50" relative="1" as="geometry">
            <mxPoint x="698" y="563" as="sourcePoint" />
            <mxPoint x="748" y="513" as="targetPoint" />
          </mxGeometry>
        </mxCell>
        <mxCell id="U2fu4v0QsKSTHsmB8Sll-18" value="" style="endArrow=none;html=1;rounded=0;entryX=0.25;entryY=0;entryDx=0;entryDy=0;exitX=0.25;exitY=1;exitDx=0;exitDy=0;" parent="1" source="U2fu4v0QsKSTHsmB8Sll-48" target="U2fu4v0QsKSTHsmB8Sll-48" edge="1">
          <mxGeometry width="50" height="50" relative="1" as="geometry">
            <mxPoint x="726" y="209" as="sourcePoint" />
            <mxPoint x="776" y="159" as="targetPoint" />
          </mxGeometry>
        </mxCell>
        <mxCell id="U2fu4v0QsKSTHsmB8Sll-19" value="&amp;nbsp; &amp;nbsp;8&amp;nbsp; &amp;nbsp; &amp;nbsp; Покупка" style="rounded=0;whiteSpace=wrap;html=1;align=left;" parent="1" vertex="1">
          <mxGeometry x="1212" y="533" width="120" height="40" as="geometry" />
        </mxCell>
        <mxCell id="U2fu4v0QsKSTHsmB8Sll-20" value="" style="endArrow=none;html=1;rounded=0;entryX=0.25;entryY=0;entryDx=0;entryDy=0;exitX=0.25;exitY=1;exitDx=0;exitDy=0;" parent="1" source="U2fu4v0QsKSTHsmB8Sll-19" target="U2fu4v0QsKSTHsmB8Sll-19" edge="1">
          <mxGeometry width="50" height="50" relative="1" as="geometry">
            <mxPoint x="777" y="413" as="sourcePoint" />
            <mxPoint x="827" y="363" as="targetPoint" />
          </mxGeometry>
        </mxCell>
        <mxCell id="U2fu4v0QsKSTHsmB8Sll-21" value="&amp;nbsp; &amp;nbsp;2&amp;nbsp; &amp;nbsp; &amp;nbsp; Продажа" style="rounded=0;whiteSpace=wrap;html=1;align=left;" parent="1" vertex="1">
          <mxGeometry x="773" y="605" width="120" height="40" as="geometry" />
        </mxCell>
        <mxCell id="U2fu4v0QsKSTHsmB8Sll-22" value="" style="endArrow=none;html=1;rounded=0;entryX=0.25;entryY=0;entryDx=0;entryDy=0;exitX=0.25;exitY=1;exitDx=0;exitDy=0;" parent="1" source="U2fu4v0QsKSTHsmB8Sll-21" target="U2fu4v0QsKSTHsmB8Sll-21" edge="1">
          <mxGeometry width="50" height="50" relative="1" as="geometry">
            <mxPoint x="708" y="461" as="sourcePoint" />
            <mxPoint x="758" y="411" as="targetPoint" />
          </mxGeometry>
        </mxCell>
        <mxCell id="U2fu4v0QsKSTHsmB8Sll-23" style="edgeStyle=orthogonalEdgeStyle;rounded=0;orthogonalLoop=1;jettySize=auto;html=1;exitX=1;exitY=0.25;exitDx=0;exitDy=0;entryX=0.5;entryY=0;entryDx=0;entryDy=0;" parent="1" source="U2fu4v0QsKSTHsmB8Sll-25" target="U2fu4v0QsKSTHsmB8Sll-32" edge="1">
          <mxGeometry relative="1" as="geometry">
            <mxPoint x="833" y="328" as="targetPoint" />
          </mxGeometry>
        </mxCell>
        <mxCell id="U2fu4v0QsKSTHsmB8Sll-24" value="Детали заказа" style="edgeLabel;html=1;align=center;verticalAlign=middle;resizable=0;points=[];" parent="U2fu4v0QsKSTHsmB8Sll-23" vertex="1" connectable="0">
          <mxGeometry x="-0.4902" y="-1" relative="1" as="geometry">
            <mxPoint x="14" y="-13" as="offset" />
          </mxGeometry>
        </mxCell>
        <mxCell id="U2fu4v0QsKSTHsmB8Sll-25" value="Обра&lt;span style=&quot;color: rgba(0, 0, 0, 0); font-family: monospace; font-size: 0px; text-align: start; text-wrap: nowrap;&quot;&gt;%3CmxGraphModel%3E%3Croot%3E%3CmxCell%20id%3D%220%22%2F%3E%3CmxCell%20id%3D%221%22%20parent%3D%220%22%2F%3E%3CmxCell%20id%3D%222%22%20value%3D%22%D0%9F%D1%80%D1%83%D0%B4%22%20style%3D%22rounded%3D0%3BwhiteSpace%3Dwrap%3Bhtml%3D1%3B%22%20vertex%3D%221%22%20parent%3D%221%22%3E%3CmxGeometry%20x%3D%22260%22%20y%3D%22350%22%20width%3D%22120%22%20height%3D%2240%22%20as%3D%22geometry%22%2F%3E%3C%2FmxCell%3E%3CmxCell%20id%3D%223%22%20value%3D%22%22%20style%3D%22endArrow%3Dnone%3Bhtml%3D1%3Brounded%3D0%3BentryX%3D0.25%3BentryY%3D0%3BentryDx%3D0%3BentryDy%3D0%3BexitX%3D0.25%3BexitY%3D1%3BexitDx%3D0%3BexitDy%3D0%3B%22%20edge%3D%221%22%20source%3D%222%22%20target%3D%222%22%20parent%3D%221%22%3E%3CmxGeometry%20width%3D%2250%22%20height%3D%2250%22%20relative%3D%221%22%20as%3D%22geometry%22%3E%3CmxPoint%20x%3D%22190%22%20y%3D%22560%22%20as%3D%22sourcePoint%22%2F%3E%3CmxPoint%20x%3D%22240%22%20y%3D%22510%22%20as%3D%22targetPoint%22%2F%3E%3C%2FmxGeometry%3E%3C%2FmxCell%3E%3CmxCell%20id%3D%224%22%20value%3D%22%D0%9A%D0%B0%D1%80%D0%BF%22%20style%3D%22rounded%3D0%3BwhiteSpace%3Dwrap%3Bhtml%3D1%3B%22%20vertex%3D%221%22%20parent%3D%221%22%3E%3CmxGeometry%20x%3D%22260%22%20y%3D%22430%22%20width%3D%22120%22%20height%3D%2240%22%20as%3D%22geometry%22%2F%3E%3C%2FmxCell%3E%3CmxCell%20id%3D%225%22%20value%3D%22%22%20style%3D%22endArrow%3Dnone%3Bhtml%3D1%3Brounded%3D0%3BentryX%3D0.25%3BentryY%3D0%3BentryDx%3D0%3BentryDy%3D0%3BexitX%3D0.25%3BexitY%3D1%3BexitDx%3D0%3BexitDy%3D0%3B%22%20edge%3D%221%22%20source%3D%224%22%20target%3D%224%22%20parent%3D%221%22%3E%3CmxGeometry%20width%3D%2250%22%20height%3D%2250%22%20relative%3D%221%22%20as%3D%22geometry%22%3E%3CmxPoint%20x%3D%22190%22%20y%3D%22640%22%20as%3D%22sourcePoint%22%2F%3E%3CmxPoint%20x%3D%22240%22%20y%3D%22590%22%20as%3D%22targetPoint%22%2F%3E%3C%2FmxGeometry%3E%3C%2FmxCell%3E%3C%2Froot%3E%3C%2FmxGraphModel%3E&lt;/span&gt;ботка заказа&lt;div&gt;&amp;nbsp; &amp;nbsp; &amp;nbsp; &amp;nbsp; &amp;nbsp; &amp;nbsp; &amp;nbsp; &amp;nbsp; &amp;nbsp; &amp;nbsp; &amp;nbsp; &amp;nbsp; &amp;nbsp; &amp;nbsp; 3&lt;/div&gt;" style="rounded=1;whiteSpace=wrap;html=1;" parent="1" vertex="1">
          <mxGeometry x="643" y="330" width="120" height="50" as="geometry" />
        </mxCell>
        <mxCell id="U2fu4v0QsKSTHsmB8Sll-26" value="" style="endArrow=classic;html=1;rounded=0;exitX=1;exitY=0.25;exitDx=0;exitDy=0;entryX=0.008;entryY=0.32;entryDx=0;entryDy=0;entryPerimeter=0;" parent="1" edge="1">
          <mxGeometry width="50" height="50" relative="1" as="geometry">
            <mxPoint x="573" y="355" as="sourcePoint" />
            <mxPoint x="643.96" y="355" as="targetPoint" />
          </mxGeometry>
        </mxCell>
        <mxCell id="U2fu4v0QsKSTHsmB8Sll-27" value="Заказ" style="edgeLabel;html=1;align=center;verticalAlign=middle;resizable=0;points=[];" parent="U2fu4v0QsKSTHsmB8Sll-26" vertex="1" connectable="0">
          <mxGeometry x="-0.0535" y="-2" relative="1" as="geometry">
            <mxPoint x="10" y="-14" as="offset" />
          </mxGeometry>
        </mxCell>
        <mxCell id="U2fu4v0QsKSTHsmB8Sll-28" style="edgeStyle=orthogonalEdgeStyle;rounded=0;orthogonalLoop=1;jettySize=auto;html=1;exitX=0.5;exitY=1;exitDx=0;exitDy=0;entryX=0.5;entryY=0;entryDx=0;entryDy=0;" parent="1" source="U2fu4v0QsKSTHsmB8Sll-60" target="U2fu4v0QsKSTHsmB8Sll-21" edge="1">
          <mxGeometry relative="1" as="geometry" />
        </mxCell>
        <mxCell id="U2fu4v0QsKSTHsmB8Sll-29" value="Информация&amp;nbsp;&lt;div&gt;о продаже&lt;/div&gt;" style="edgeLabel;html=1;align=center;verticalAlign=middle;resizable=0;points=[];" parent="U2fu4v0QsKSTHsmB8Sll-28" vertex="1" connectable="0">
          <mxGeometry x="-0.2188" y="-1" relative="1" as="geometry">
            <mxPoint x="-39" y="12" as="offset" />
          </mxGeometry>
        </mxCell>
        <mxCell id="U2fu4v0QsKSTHsmB8Sll-30" style="edgeStyle=orthogonalEdgeStyle;rounded=0;orthogonalLoop=1;jettySize=auto;html=1;exitX=0.5;exitY=1;exitDx=0;exitDy=0;entryX=0.5;entryY=0;entryDx=0;entryDy=0;" parent="1" source="U2fu4v0QsKSTHsmB8Sll-32" target="U2fu4v0QsKSTHsmB8Sll-60" edge="1">
          <mxGeometry relative="1" as="geometry">
            <mxPoint x="833" y="505" as="targetPoint" />
          </mxGeometry>
        </mxCell>
        <mxCell id="U2fu4v0QsKSTHsmB8Sll-31" value="Информация о вылове" style="edgeLabel;html=1;align=center;verticalAlign=middle;resizable=0;points=[];" parent="U2fu4v0QsKSTHsmB8Sll-30" vertex="1" connectable="0">
          <mxGeometry x="-0.3182" relative="1" as="geometry">
            <mxPoint as="offset" />
          </mxGeometry>
        </mxCell>
        <mxCell id="U2fu4v0QsKSTHsmB8Sll-32" value="&lt;div&gt;Разработка ПО&lt;/div&gt;&lt;div&gt;&lt;br&gt;&lt;/div&gt;&lt;div&gt;&amp;nbsp; &amp;nbsp; &amp;nbsp; &amp;nbsp; &amp;nbsp; &amp;nbsp; &amp;nbsp; &amp;nbsp; &amp;nbsp; &amp;nbsp; &amp;nbsp; &amp;nbsp; &amp;nbsp; &amp;nbsp; &amp;nbsp; 4&lt;/div&gt;" style="rounded=1;whiteSpace=wrap;html=1;" parent="1" vertex="1">
          <mxGeometry x="773" y="409" width="120" height="52" as="geometry" />
        </mxCell>
        <mxCell id="U2fu4v0QsKSTHsmB8Sll-33" style="edgeStyle=orthogonalEdgeStyle;rounded=0;orthogonalLoop=1;jettySize=auto;html=1;exitX=0.5;exitY=0;exitDx=0;exitDy=0;entryX=0.5;entryY=1;entryDx=0;entryDy=0;" parent="1" source="U2fu4v0QsKSTHsmB8Sll-37" target="U2fu4v0QsKSTHsmB8Sll-19" edge="1">
          <mxGeometry relative="1" as="geometry" />
        </mxCell>
        <mxCell id="U2fu4v0QsKSTHsmB8Sll-34" value="Информация о&lt;div&gt;&amp;nbsp;поставке&lt;/div&gt;" style="edgeLabel;html=1;align=left;verticalAlign=middle;resizable=0;points=[];" parent="U2fu4v0QsKSTHsmB8Sll-33" vertex="1" connectable="0">
          <mxGeometry x="0.0314" y="3" relative="1" as="geometry">
            <mxPoint x="13" as="offset" />
          </mxGeometry>
        </mxCell>
        <mxCell id="U2fu4v0QsKSTHsmB8Sll-35" style="edgeStyle=orthogonalEdgeStyle;rounded=0;orthogonalLoop=1;jettySize=auto;html=1;exitX=0.25;exitY=0;exitDx=0;exitDy=0;entryX=0.25;entryY=1;entryDx=0;entryDy=0;" parent="1" source="U2fu4v0QsKSTHsmB8Sll-37" target="U2fu4v0QsKSTHsmB8Sll-19" edge="1">
          <mxGeometry relative="1" as="geometry" />
        </mxCell>
        <mxCell id="U2fu4v0QsKSTHsmB8Sll-36" value="Документы&lt;div&gt;покупки&lt;/div&gt;" style="edgeLabel;html=1;align=center;verticalAlign=middle;resizable=0;points=[];" parent="U2fu4v0QsKSTHsmB8Sll-35" vertex="1" connectable="0">
          <mxGeometry x="-0.2333" y="4" relative="1" as="geometry">
            <mxPoint x="-30" y="-7" as="offset" />
          </mxGeometry>
        </mxCell>
        <mxCell id="U2fu4v0QsKSTHsmB8Sll-37" value="&lt;div style=&quot;&quot;&gt;&lt;span style=&quot;background-color: initial;&quot;&gt;Поставка&lt;/span&gt;&lt;/div&gt;&lt;div&gt;&amp;nbsp; &amp;nbsp; &amp;nbsp; &amp;nbsp; &amp;nbsp;&lt;div style=&quot;&quot;&gt;&amp;nbsp; &amp;nbsp; &amp;nbsp; &amp;nbsp; &amp;nbsp; &amp;nbsp; &amp;nbsp; &amp;nbsp; &amp;nbsp; &amp;nbsp; &amp;nbsp; &amp;nbsp; &amp;nbsp; &amp;nbsp; &amp;nbsp; 1&lt;/div&gt;&lt;/div&gt;" style="rounded=1;whiteSpace=wrap;html=1;align=center;" parent="1" vertex="1">
          <mxGeometry x="1212" y="633" width="120" height="60" as="geometry" />
        </mxCell>
        <mxCell id="U2fu4v0QsKSTHsmB8Sll-38" style="edgeStyle=orthogonalEdgeStyle;rounded=0;orthogonalLoop=1;jettySize=auto;html=1;exitX=0.5;exitY=0;exitDx=0;exitDy=0;entryX=0.5;entryY=1;entryDx=0;entryDy=0;" parent="1" source="U2fu4v0QsKSTHsmB8Sll-40" target="U2fu4v0QsKSTHsmB8Sll-37" edge="1">
          <mxGeometry relative="1" as="geometry" />
        </mxCell>
        <mxCell id="U2fu4v0QsKSTHsmB8Sll-39" value="Информация о товарах" style="edgeLabel;html=1;align=center;verticalAlign=middle;resizable=0;points=[];" parent="U2fu4v0QsKSTHsmB8Sll-38" vertex="1" connectable="0">
          <mxGeometry x="0.05" y="-4" relative="1" as="geometry">
            <mxPoint as="offset" />
          </mxGeometry>
        </mxCell>
        <mxCell id="U2fu4v0QsKSTHsmB8Sll-40" value="9&amp;nbsp; &amp;nbsp; &amp;nbsp; Контрагент&lt;div&gt;&amp;nbsp; &amp;nbsp; &amp;nbsp; &amp;nbsp; (Продавец)&lt;/div&gt;" style="rounded=0;whiteSpace=wrap;html=1;" parent="1" vertex="1">
          <mxGeometry x="1212" y="743" width="120" height="40" as="geometry" />
        </mxCell>
        <mxCell id="U2fu4v0QsKSTHsmB8Sll-41" value="" style="endArrow=none;html=1;rounded=0;entryX=0.25;entryY=0;entryDx=0;entryDy=0;exitX=0.25;exitY=1;exitDx=0;exitDy=0;" parent="1" source="U2fu4v0QsKSTHsmB8Sll-40" target="U2fu4v0QsKSTHsmB8Sll-40" edge="1">
          <mxGeometry width="50" height="50" relative="1" as="geometry">
            <mxPoint x="1397" y="831" as="sourcePoint" />
            <mxPoint x="1447" y="781" as="targetPoint" />
          </mxGeometry>
        </mxCell>
        <mxCell id="U2fu4v0QsKSTHsmB8Sll-42" style="edgeStyle=orthogonalEdgeStyle;rounded=0;orthogonalLoop=1;jettySize=auto;html=1;exitX=0.5;exitY=1;exitDx=0;exitDy=0;entryX=0.5;entryY=0;entryDx=0;entryDy=0;" parent="1" source="U2fu4v0QsKSTHsmB8Sll-12" target="U2fu4v0QsKSTHsmB8Sll-44" edge="1">
          <mxGeometry relative="1" as="geometry">
            <mxPoint x="998" y="445" as="sourcePoint" />
            <mxPoint x="1048" y="511" as="targetPoint" />
          </mxGeometry>
        </mxCell>
        <mxCell id="U2fu4v0QsKSTHsmB8Sll-43" value="Информация о &lt;br&gt;карпах в пруду" style="edgeLabel;html=1;align=center;verticalAlign=middle;resizable=0;points=[];" parent="U2fu4v0QsKSTHsmB8Sll-42" vertex="1" connectable="0">
          <mxGeometry x="0.1625" y="-4" relative="1" as="geometry">
            <mxPoint x="4" y="-9" as="offset" />
          </mxGeometry>
        </mxCell>
        <mxCell id="U2fu4v0QsKSTHsmB8Sll-44" value="&amp;nbsp; &amp;nbsp; 6&amp;nbsp; &amp;nbsp; &amp;nbsp;Кормление" style="rounded=0;whiteSpace=wrap;html=1;align=left;" parent="1" vertex="1">
          <mxGeometry x="988" y="533" width="120" height="40" as="geometry" />
        </mxCell>
        <mxCell id="U2fu4v0QsKSTHsmB8Sll-45" value="" style="endArrow=none;html=1;rounded=0;entryX=0.25;entryY=0;entryDx=0;entryDy=0;exitX=0.25;exitY=1;exitDx=0;exitDy=0;" parent="1" source="U2fu4v0QsKSTHsmB8Sll-44" target="U2fu4v0QsKSTHsmB8Sll-44" edge="1">
          <mxGeometry width="50" height="50" relative="1" as="geometry">
            <mxPoint x="618" y="533" as="sourcePoint" />
            <mxPoint x="668" y="483" as="targetPoint" />
          </mxGeometry>
        </mxCell>
        <mxCell id="U2fu4v0QsKSTHsmB8Sll-46" style="edgeStyle=orthogonalEdgeStyle;rounded=0;orthogonalLoop=1;jettySize=auto;html=1;exitX=0.5;exitY=1;exitDx=0;exitDy=0;entryX=0;entryY=0.5;entryDx=0;entryDy=0;" parent="1" source="U2fu4v0QsKSTHsmB8Sll-48" target="U2fu4v0QsKSTHsmB8Sll-60" edge="1">
          <mxGeometry relative="1" as="geometry" />
        </mxCell>
        <mxCell id="U2fu4v0QsKSTHsmB8Sll-47" value="Оплата" style="edgeLabel;html=1;align=center;verticalAlign=middle;resizable=0;points=[];" parent="U2fu4v0QsKSTHsmB8Sll-46" vertex="1" connectable="0">
          <mxGeometry x="0.691" y="-2" relative="1" as="geometry">
            <mxPoint x="-36" y="-13" as="offset" />
          </mxGeometry>
        </mxCell>
        <mxCell id="U2fu4v0QsKSTHsmB8Sll-48" value="&amp;nbsp; &amp;nbsp;1&amp;nbsp; &amp;nbsp; &amp;nbsp; &amp;nbsp;Клиент&lt;div&gt;&lt;span style=&quot;white-space: pre;&quot;&gt;&#x9;&lt;/span&gt;&amp;nbsp;&amp;nbsp;&lt;br&gt;&lt;/div&gt;" style="rounded=0;whiteSpace=wrap;html=1;align=left;" parent="1" vertex="1">
          <mxGeometry x="480" y="335" width="120" height="40" as="geometry" />
        </mxCell>
        <mxCell id="U2fu4v0QsKSTHsmB8Sll-49" value="" style="endArrow=classic;html=1;rounded=0;exitX=0.75;exitY=1;exitDx=0;exitDy=0;entryX=0.75;entryY=0;entryDx=0;entryDy=0;" parent="1" source="U2fu4v0QsKSTHsmB8Sll-60" target="U2fu4v0QsKSTHsmB8Sll-21" edge="1">
          <mxGeometry width="50" height="50" relative="1" as="geometry">
            <mxPoint x="953" y="521" as="sourcePoint" />
            <mxPoint x="1003" y="471" as="targetPoint" />
          </mxGeometry>
        </mxCell>
        <mxCell id="U2fu4v0QsKSTHsmB8Sll-50" value="Документы&lt;div&gt;продажи&lt;/div&gt;" style="edgeLabel;html=1;align=center;verticalAlign=middle;resizable=0;points=[];" parent="U2fu4v0QsKSTHsmB8Sll-49" vertex="1" connectable="0">
          <mxGeometry x="-0.2308" y="2" relative="1" as="geometry">
            <mxPoint x="28" y="8" as="offset" />
          </mxGeometry>
        </mxCell>
        <mxCell id="U2fu4v0QsKSTHsmB8Sll-51" style="edgeStyle=orthogonalEdgeStyle;rounded=0;orthogonalLoop=1;jettySize=auto;html=1;exitX=0;exitY=0.5;exitDx=0;exitDy=0;entryX=0.5;entryY=0;entryDx=0;entryDy=0;" parent="1" source="U2fu4v0QsKSTHsmB8Sll-53" target="U2fu4v0QsKSTHsmB8Sll-12" edge="1">
          <mxGeometry relative="1" as="geometry" />
        </mxCell>
        <mxCell id="U2fu4v0QsKSTHsmB8Sll-52" value="Информация о карпе" style="edgeLabel;html=1;align=center;verticalAlign=middle;resizable=0;points=[];" parent="U2fu4v0QsKSTHsmB8Sll-51" vertex="1" connectable="0">
          <mxGeometry x="0.0609" y="-3" relative="1" as="geometry">
            <mxPoint x="29" y="-7" as="offset" />
          </mxGeometry>
        </mxCell>
        <mxCell id="U2fu4v0QsKSTHsmB8Sll-53" value="&amp;nbsp; &amp;nbsp;4&amp;nbsp; &amp;nbsp; &amp;nbsp; Карп" style="rounded=0;whiteSpace=wrap;html=1;align=left;" parent="1" vertex="1">
          <mxGeometry x="1183" y="333" width="120" height="40" as="geometry" />
        </mxCell>
        <mxCell id="U2fu4v0QsKSTHsmB8Sll-54" value="" style="endArrow=none;html=1;rounded=0;entryX=0.25;entryY=0;entryDx=0;entryDy=0;exitX=0.25;exitY=1;exitDx=0;exitDy=0;" parent="1" source="U2fu4v0QsKSTHsmB8Sll-53" target="U2fu4v0QsKSTHsmB8Sll-53" edge="1">
          <mxGeometry width="50" height="50" relative="1" as="geometry">
            <mxPoint x="648" y="421" as="sourcePoint" />
            <mxPoint x="698" y="371" as="targetPoint" />
          </mxGeometry>
        </mxCell>
        <mxCell id="U2fu4v0QsKSTHsmB8Sll-55" style="edgeStyle=orthogonalEdgeStyle;rounded=0;orthogonalLoop=1;jettySize=auto;html=1;exitX=0;exitY=0.5;exitDx=0;exitDy=0;entryX=1;entryY=0.5;entryDx=0;entryDy=0;" parent="1" source="U2fu4v0QsKSTHsmB8Sll-57" target="U2fu4v0QsKSTHsmB8Sll-12" edge="1">
          <mxGeometry relative="1" as="geometry" />
        </mxCell>
        <mxCell id="U2fu4v0QsKSTHsmB8Sll-56" value="Информация &lt;br&gt;о пруду" style="edgeLabel;html=1;align=center;verticalAlign=middle;resizable=0;points=[];" parent="U2fu4v0QsKSTHsmB8Sll-55" vertex="1" connectable="0">
          <mxGeometry y="2" relative="1" as="geometry">
            <mxPoint x="1" y="-22" as="offset" />
          </mxGeometry>
        </mxCell>
        <mxCell id="U2fu4v0QsKSTHsmB8Sll-57" value="&amp;nbsp; &amp;nbsp;5&amp;nbsp; &amp;nbsp; &amp;nbsp; Пруд" style="rounded=0;whiteSpace=wrap;html=1;align=left;" parent="1" vertex="1">
          <mxGeometry x="1183" y="415" width="120" height="40" as="geometry" />
        </mxCell>
        <mxCell id="U2fu4v0QsKSTHsmB8Sll-58" value="" style="endArrow=none;html=1;rounded=0;entryX=0.25;entryY=0;entryDx=0;entryDy=0;exitX=0.25;exitY=1;exitDx=0;exitDy=0;" parent="1" source="U2fu4v0QsKSTHsmB8Sll-57" target="U2fu4v0QsKSTHsmB8Sll-57" edge="1">
          <mxGeometry width="50" height="50" relative="1" as="geometry">
            <mxPoint x="648" y="511" as="sourcePoint" />
            <mxPoint x="698" y="461" as="targetPoint" />
          </mxGeometry>
        </mxCell>
        <mxCell id="U2fu4v0QsKSTHsmB8Sll-59" value="" style="endArrow=none;html=1;rounded=0;entryX=0.25;entryY=0;entryDx=0;entryDy=0;exitX=0.25;exitY=1;exitDx=0;exitDy=0;" parent="1" edge="1">
          <mxGeometry width="50" height="50" relative="1" as="geometry">
            <mxPoint x="501" y="375" as="sourcePoint" />
            <mxPoint x="501" y="335" as="targetPoint" />
          </mxGeometry>
        </mxCell>
        <mxCell id="U2fu4v0QsKSTHsmB8Sll-60" value="Оформление продажи&lt;div&gt;&lt;span style=&quot;white-space: pre;&quot;&gt;&#x9;&lt;/span&gt;&lt;span style=&quot;white-space: pre;&quot;&gt;&#x9;&lt;span style=&quot;white-space: pre;&quot;&gt;&#x9;&lt;/span&gt;&lt;/span&gt;3&lt;br&gt;&lt;/div&gt;" style="rounded=1;whiteSpace=wrap;html=1;" parent="1" vertex="1">
          <mxGeometry x="773" y="506" width="120" height="47" as="geometry" />
        </mxCell>
        <mxCell id="U2fu4v0QsKSTHsmB8Sll-61" value="" style="endArrow=classic;startArrow=classic;html=1;rounded=0;exitX=1;exitY=0.5;exitDx=0;exitDy=0;entryX=0;entryY=0.5;entryDx=0;entryDy=0;" parent="1" source="U2fu4v0QsKSTHsmB8Sll-16" target="U2fu4v0QsKSTHsmB8Sll-37" edge="1">
          <mxGeometry width="50" height="50" relative="1" as="geometry">
            <mxPoint x="1108" y="823" as="sourcePoint" />
            <mxPoint x="1158" y="773" as="targetPoint" />
          </mxGeometry>
        </mxCell>
        <mxCell id="U2fu4v0QsKSTHsmB8Sll-62" value="Информация о&lt;br&gt;номенклатуре" style="edgeLabel;html=1;align=center;verticalAlign=middle;resizable=0;points=[];" parent="U2fu4v0QsKSTHsmB8Sll-61" vertex="1" connectable="0">
          <mxGeometry x="0.06" y="-1" relative="1" as="geometry">
            <mxPoint x="-4" y="-1" as="offset" />
          </mxGeometry>
        </mxCell>
      </root>
    </mxGraphModel>
  </diagram>
</mxfile>
